<?xml version="1.0" standalone="no"?>
<!DOCTYPE svg PUBLIC "-//W3C//DTD SVG 20010904//EN"
 "http://www.w3.org/TR/2001/REC-SVG-20010904/DTD/svg10.dtd">
<svg version="1.0" xmlns="http://www.w3.org/2000/svg"
 width="474.000000pt" height="273.000000pt" viewBox="0 0 474.000000 273.000000"
 preserveAspectRatio="xMidYMid meet">

<g transform="translate(0.000000,273.000000) scale(0.100000,-0.100000)"
fill="#000000" stroke="none">
<path d="M1303 2370 c-66 -40 -63 0 -63 -845 l1 -766 -31 -25 c-37 -32 -175
-214 -185 -244 -9 -29 20 -69 66 -93 32 -16 109 -17 1291 -15 l1257 3 28 21
c40 30 58 70 44 100 -13 29 -166 218 -195 242 l-21 17 2 765 c2 599 0 770 -10
790 -7 13 -28 35 -46 47 l-34 23 -1036 0 c-1010 0 -1037 -1 -1068 -20z m2075
-827 l2 -723 -1010 0 -1010 0 0 725 0 725 1008 -2 1007 -3 3 -722z m35 -852
c27 -21 59 -79 55 -98 -3 -16 -27 -18 -318 -19 -435 -2 -388 2 -392 -36 l-3
-33 -380 0 -380 0 -3 33 c-3 25 -8 32 -25 33 -12 0 -171 1 -354 2 -182 1 -335
5 -338 9 -14 13 6 61 38 92 l32 31 1026 0 c851 0 1029 -2 1042 -14z"/>
<path d="M2511 1953 c-20 -13 -45 -61 -146 -278 -18 -38 -76 -162 -129 -274
-53 -112 -96 -207 -96 -212 0 -21 24 -58 41 -62 39 -10 57 5 92 76 64 129 187
388 187 393 0 2 32 70 70 150 39 80 70 153 70 163 0 38 -57 67 -89 44z"/>
<path d="M1865 1799 c-33 -27 -59 -55 -57 -60 1 -6 -2 -8 -8 -4 -5 3 -40 -20
-77 -51 -120 -99 -123 -103 -123 -140 0 -21 4 -33 10 -29 6 4 7 -1 3 -11 -5
-14 -3 -16 11 -11 9 4 15 3 11 -2 -5 -8 57 -63 225 -198 52 -42 72 -53 102
-53 49 0 82 39 74 89 -5 34 -33 64 -50 54 -5 -4 -6 -2 -3 4 4 6 -34 43 -83 83
-65 52 -88 76 -81 84 6 7 53 46 105 87 120 94 138 128 95 183 -34 44 -81 36
-154 -25z"/>
<path d="M2725 1825 c-29 -28 -32 -61 -10 -92 9 -12 60 -59 115 -104 55 -44
98 -85 95 -89 -2 -4 -37 -34 -77 -66 -157 -125 -174 -154 -125 -208 22 -25 34
-29 72 -27 25 1 314 237 334 272 18 33 8 73 -27 103 -15 13 -85 72 -157 130
-145 118 -173 129 -220 81z"/>
</g>
</svg>
